<?xml version="1.0" standalone="no"?>
<!DOCTYPE svg PUBLIC "-//W3C//DTD SVG 20010904//EN"
 "http://www.w3.org/TR/2001/REC-SVG-20010904/DTD/svg10.dtd">
<svg version="1.0" xmlns="http://www.w3.org/2000/svg"
 width="1280.000000pt" height="1138.000000pt" viewBox="0 0 1280.000000 1138.000000"
 preserveAspectRatio="xMidYMid meet">
<metadata>
Created by potrace 1.15, written by Peter Selinger 2001-2017
</metadata>
<g transform="translate(0.000000,1138.000000) scale(0.100000,-0.100000)"
fill="#000000" stroke="none">
<path d="M3655 11366 c-43 -18 -68 -61 -68 -114 0 -65 47 -118 128 -146 l39
-14 -85 -25 c-116 -35 -299 -83 -388 -102 l-73 -15 -39 44 c-167 189 -534 214
-806 55 -35 -21 -110 -87 -193 -171 -74 -75 -148 -142 -165 -148 -45 -17 -107
-4 -137 28 -35 37 -41 64 -24 105 17 42 45 59 88 55 64 -6 63 -75 -1 -72 -37
2 -40 -10 -6 -32 50 -33 115 9 115 74 0 108 -168 123 -240 22 -61 -86 -18
-192 92 -221 39 -11 55 -10 102 3 31 8 56 14 56 12 0 -2 -28 -43 -62 -91 -195
-276 -353 -345 -489 -214 -39 38 -48 54 -55 96 -5 39 -3 56 12 84 23 42 58 69
101 77 27 5 37 1 64 -25 26 -27 30 -37 25 -64 -3 -18 -19 -44 -38 -59 -30 -26
-31 -28 -10 -28 137 0 181 192 60 257 -43 22 -132 22 -178 -2 -149 -75 -193
-251 -96 -378 l34 -44 -72 -7 c-141 -13 -257 -59 -363 -146 -130 -106 -220
-247 -294 -460 -64 -184 -84 -222 -143 -268 -37 -29 -96 -30 -121 -2 -23 26
-23 74 0 100 20 22 74 27 93 8 7 -7 12 -8 12 -2 0 6 -10 20 -23 32 -79 74
-204 -41 -167 -152 32 -98 152 -111 241 -26 l41 39 -7 -62 c-22 -198 -65 -463
-79 -486 -4 -6 -13 -11 -20 -11 -7 0 -45 -16 -84 -35 -96 -48 -179 -139 -238
-260 -57 -118 -77 -204 -76 -335 0 -132 22 -218 96 -379 39 -84 56 -132 56
-161 0 -114 -110 -181 -181 -111 -50 51 -36 138 22 129 35 -5 47 -33 24 -57
-23 -26 -14 -37 17 -20 32 16 38 28 38 71 0 68 -78 101 -135 56 -54 -43 -68
-113 -35 -185 23 -51 70 -83 123 -83 80 0 140 59 160 159 l13 60 66 -117 c89
-159 111 -219 112 -312 1 -65 -3 -81 -27 -123 -66 -111 -238 -131 -298 -33
-28 45 -25 116 4 144 51 48 137 10 137 -60 l1 -33 14 25 c51 90 -25 199 -130
187 -49 -5 -83 -27 -116 -76 -31 -45 -38 -144 -15 -206 21 -54 100 -129 153
-145 41 -13 145 -10 176 4 16 7 14 -1 -11 -51 -132 -261 -75 -564 169 -889 49
-65 98 -138 110 -162 29 -58 30 -132 3 -169 -46 -61 -153 -16 -128 54 5 16 19
32 32 38 26 12 29 25 5 25 -37 0 -82 -38 -89 -74 -9 -51 2 -84 41 -123 27 -27
40 -33 77 -33 91 0 144 66 136 173 l-4 60 141 -144 c77 -79 162 -172 189 -207
l48 -63 -23 -52 c-31 -70 -38 -235 -15 -326 37 -146 97 -256 195 -363 79 -86
156 -141 291 -208 166 -83 200 -117 200 -201 0 -33 -6 -47 -34 -75 -42 -42
-82 -45 -125 -8 -46 38 -39 104 11 104 20 0 42 -35 34 -56 -8 -21 12 -17 24 5
15 30 12 56 -11 85 -49 62 -149 13 -149 -73 0 -71 78 -151 147 -151 123 0 187
134 121 253 -15 26 -23 47 -19 47 4 0 65 -29 137 -64 147 -73 224 -135 269
-217 51 -94 34 -186 -46 -253 -69 -58 -152 -54 -209 10 -38 43 -40 85 -5 119
36 37 86 34 119 -6 l26 -31 0 29 c0 15 -9 41 -19 57 -60 90 -191 70 -235 -35
-25 -61 -16 -122 27 -186 83 -123 272 -139 383 -32 l31 30 6 -88 c18 -274 169
-485 507 -709 168 -111 199 -141 221 -214 14 -46 -2 -87 -43 -110 -25 -13 -31
-13 -55 0 -42 24 -52 63 -25 100 25 34 23 36 -17 15 -32 -16 -41 -33 -41 -76
0 -70 53 -119 130 -119 32 0 48 7 77 33 31 29 37 41 40 88 4 43 0 64 -19 101
l-24 46 117 -59 c133 -66 227 -122 310 -182 l56 -41 -1 -106 c0 -93 4 -114 31
-187 57 -149 170 -297 300 -389 84 -61 189 -108 321 -143 147 -40 187 -58 217
-92 65 -78 27 -194 -65 -194 -71 0 -118 77 -67 109 22 14 49 -2 58 -35 l6 -24
11 27 c33 81 -75 136 -132 67 -80 -95 56 -247 175 -196 110 47 125 179 32 279
l-26 27 64 -15 c236 -54 377 -132 428 -237 29 -60 27 -114 -7 -178 -57 -110
-190 -132 -257 -43 -8 10 -15 36 -15 56 0 68 78 101 134 57 32 -25 35 -8 6 38
-24 41 -51 55 -106 55 -79 0 -134 -62 -134 -151 0 -118 105 -211 239 -211 81
0 136 25 190 86 l39 44 17 -75 c35 -160 96 -268 219 -391 108 -108 189 -162
377 -255 141 -70 208 -119 235 -170 33 -65 1 -139 -60 -139 -58 0 -85 58 -50
108 17 24 13 27 -17 12 -29 -16 -50 -64 -43 -100 19 -92 142 -130 208 -63 53
53 57 129 11 197 -14 20 -25 39 -25 41 0 12 271 -100 396 -164 34 -17 69 -31
78 -31 9 0 18 -11 22 -27 24 -114 122 -183 253 -183 92 1 249 72 366 167 99
81 170 174 245 326 38 76 79 151 90 167 55 77 178 81 216 9 33 -64 -3 -138
-66 -139 -30 0 -50 17 -50 42 0 20 35 42 56 34 21 -8 17 12 -5 24 -32 16 -60
12 -86 -15 -81 -80 47 -189 145 -123 49 34 80 83 80 130 0 119 -136 181 -252
116 l-47 -26 19 49 c63 159 153 291 238 347 45 30 65 37 118 40 58 4 68 1 113
-28 104 -66 121 -191 35 -259 -89 -70 -195 43 -113 120 30 28 31 29 8 29 -34
0 -86 -34 -104 -69 -48 -95 28 -201 145 -201 148 1 260 162 216 312 -8 30 -31
72 -51 96 l-37 42 59 0 c82 0 226 32 304 68 174 78 327 221 480 449 65 96 119
148 173 166 76 26 136 -4 136 -68 0 -60 -63 -84 -113 -45 l-26 21 11 -31 c7
-20 23 -37 45 -48 30 -14 38 -15 76 -2 50 18 87 68 87 118 0 106 -123 162
-232 106 -15 -8 -28 -11 -28 -6 0 16 162 278 215 347 100 130 83 118 153 105
160 -32 382 53 544 208 131 125 190 228 259 450 17 57 41 117 53 134 50 74
146 87 199 28 30 -34 34 -67 12 -110 -26 -51 -96 -52 -103 -1 -3 16 4 25 29
35 31 13 31 14 11 25 -31 17 -50 13 -77 -14 -60 -59 -6 -152 81 -142 139 15
183 210 62 273 -64 34 -154 17 -217 -40 l-23 -21 7 35 c17 79 60 200 97 273
50 96 125 169 193 186 85 21 182 -25 224 -106 6 -12 11 -43 11 -69 0 -41 -5
-51 -39 -85 -48 -48 -81 -51 -122 -10 -36 36 -37 70 -3 110 29 35 27 37 -20
17 -51 -21 -76 -60 -76 -119 0 -44 4 -54 38 -87 70 -70 172 -63 253 19 46 45
79 120 79 176 0 58 -33 131 -81 179 -27 27 -48 50 -47 51 2 1 31 6 65 12 176
32 349 146 473 314 61 82 136 224 189 355 44 106 88 166 145 194 40 19 50 20
82 10 63 -21 71 -96 13 -129 -23 -12 -29 -12 -58 2 -29 15 -32 15 -27 1 3 -9
6 -17 6 -20 0 -2 14 -11 31 -20 45 -23 90 -11 128 32 37 42 42 101 11 151 -25
41 -52 55 -110 55 -52 0 -81 -12 -124 -51 -25 -23 -28 -24 -23 -6 53 189 106
345 154 448 l36 77 42 0 c210 0 460 228 552 505 24 74 27 97 32 307 7 255 9
264 85 302 71 35 146 -8 146 -84 0 -52 -24 -82 -63 -78 -26 2 -33 8 -35 30 -2
19 3 30 19 39 19 10 20 13 6 20 -34 20 -87 -29 -87 -80 0 -29 37 -69 70 -76
69 -15 149 66 150 150 0 107 -102 174 -203 132 -36 -16 -107 -89 -107 -112 0
-8 -4 -15 -9 -15 -13 0 -26 135 -26 265 1 124 17 187 66 255 70 96 200 107
285 25 40 -38 44 -46 44 -91 0 -89 -55 -141 -121 -114 -33 14 -54 59 -45 100
5 28 4 30 -13 20 -11 -5 -27 -30 -36 -54 -21 -55 -9 -103 36 -141 56 -47 125
-46 193 2 157 110 97 376 -96 430 l-57 16 37 27 c114 82 211 231 253 386 33
121 31 320 -5 474 -45 194 -49 223 -37 282 21 95 99 140 151 88 42 -42 7 -120
-54 -120 -17 0 -18 -2 -6 -10 20 -13 66 -13 91 0 26 14 49 62 49 102 0 76 -71
144 -139 134 -65 -10 -102 -49 -130 -137 l-16 -49 -69 158 c-38 86 -86 202
-107 257 l-38 100 23 25 c127 139 152 388 63 610 -66 162 -167 272 -356 389
-68 42 -133 88 -144 103 -12 17 -22 49 -25 82 -4 51 -2 57 26 86 51 50 131 39
157 -22 16 -40 9 -67 -23 -75 -29 -7 -56 20 -48 50 6 23 -11 22 -24 -2 -27
-52 12 -111 75 -111 84 0 116 105 56 187 -35 49 -102 79 -154 69 -41 -8 -90
-58 -107 -109 -14 -46 1 -122 32 -162 12 -16 15 -25 7 -25 -24 0 -275 129
-324 167 -68 53 -115 132 -115 195 0 114 73 198 172 198 72 0 127 -48 128
-111 0 -69 -77 -103 -134 -58 -22 17 -26 18 -26 4 0 -83 126 -133 205 -81 86
57 72 219 -26 297 -110 87 -262 73 -352 -31 -23 -27 -37 -38 -37 -27 0 9 -11
52 -25 96 -75 238 -295 415 -600 484 -38 9 -115 23 -170 32 -163 25 -249 81
-249 161 0 69 72 97 121 48 20 -20 24 -32 19 -55 -6 -33 1 -37 20 -11 22 28
17 77 -11 111 -53 62 -143 64 -195 5 -58 -67 -32 -170 57 -225 l38 -24 -235
-3 c-129 -2 -258 0 -285 3 -49 6 -51 7 -74 56 -51 113 -210 226 -378 270 -117
30 -271 28 -386 -6 -100 -29 -147 -51 -228 -105 -92 -62 -169 -100 -206 -100
-78 0 -133 48 -133 115 0 78 107 130 145 71 26 -39 -5 -78 -45 -56 -25 13 -30
13 -30 -4 0 -21 40 -46 73 -46 38 0 77 40 77 80 0 47 -17 70 -67 92 -39 17
-50 18 -95 8 -60 -15 -114 -64 -123 -114 -9 -44 22 -115 62 -144 37 -26 117
-45 155 -37 15 4 28 5 28 2 0 -8 -176 -144 -231 -179 -116 -75 -225 -96 -298
-59 -138 71 -159 255 -35 307 48 20 79 17 110 -9 48 -42 30 -113 -36 -139
l-25 -10 24 -9 c37 -14 88 0 121 34 61 63 48 158 -28 212 -38 26 -52 30 -110
30 -82 -1 -132 -25 -189 -89 -67 -76 -80 -175 -35 -266 l20 -42 -21 6 c-12 3
-59 11 -103 17 -148 21 -309 -20 -451 -114 -95 -63 -221 -197 -300 -320 -71
-110 -131 -180 -177 -204 -38 -20 -90 -19 -121 1 -32 21 -34 77 -5 106 24 24
72 26 90 5 21 -26 31 -16 15 15 -27 53 -77 64 -133 30 -88 -54 -96 -168 -16
-221 51 -33 154 -19 207 29 20 18 24 30 -43 -138 -59 -149 -139 -248 -242
-300 l-60 -29 -121 91 c-154 117 -181 141 -289 265 -49 57 -116 123 -148 148
-74 57 -199 118 -287 139 -152 38 -223 96 -223 182 0 64 34 99 95 99 39 0 51
-5 71 -29 28 -31 28 -63 2 -80 -23 -14 -52 3 -56 33 -6 40 -32 16 -32 -30 0
-31 44 -69 80 -69 43 0 65 14 80 50 25 59 -11 135 -80 170 -170 87 -286 -124
-147 -268 l31 -32 -34 6 c-151 27 -276 60 -333 86 -89 41 -153 110 -163 173
-8 56 2 110 27 152 58 94 201 98 244 7 20 -42 19 -47 -11 -83 -29 -35 -75 -41
-112 -15 -26 18 -27 13 -7 -25 19 -38 77 -65 122 -58 101 17 149 114 104 212
-84 183 -348 188 -442 7 l-28 -52 -31 58 c-87 163 -242 280 -445 333 -91 24
-253 29 -485 15 -130 -7 -137 -7 -180 16 -81 42 -98 130 -31 158 50 20 100
-15 102 -72 0 -20 2 -19 16 10 15 29 15 35 1 65 -28 58 -107 82 -173 53z
m5633 -168 c43 -13 96 -59 112 -98 18 -43 5 -94 -31 -124 -37 -31 -77 -33
-113 -5 -41 33 -31 94 15 87 20 -2 24 -9 24 -36 l0 -33 17 21 c30 37 21 73
-24 96 -86 44 -163 -58 -110 -148 54 -92 199 -96 263 -7 31 44 36 114 11 162
-11 21 -15 37 -9 37 6 0 45 -17 86 -37 53 -26 98 -59 149 -109 39 -39 72 -76
72 -81 0 -7 -21 -6 -60 2 -33 7 -60 8 -60 4 0 -15 92 -69 144 -84 64 -19 224
-19 386 0 69 8 137 15 151 15 26 0 26 -1 -16 -43 -75 -75 -81 -176 -13 -239
57 -53 127 -50 178 9 29 32 32 41 27 80 -2 25 -10 50 -17 56 -10 9 -12 8 -7
-5 9 -24 -11 -76 -33 -88 -87 -47 -154 57 -84 131 93 100 306 97 535 -8 l83
-38 -54 -8 c-86 -12 -153 -67 -160 -132 -6 -54 2 -79 34 -111 56 -56 135 -44
171 26 23 44 18 56 -10 26 -47 -50 -125 -26 -125 40 0 39 43 80 96 90 113 21
284 -119 284 -233 0 -79 -36 -123 -101 -123 -59 0 -103 72 -67 108 31 31 73
-2 49 -39 -9 -15 -8 -19 3 -19 48 0 62 76 20 109 -86 68 -182 -46 -126 -149
65 -119 235 -97 268 34 10 42 19 19 54 -135 37 -161 63 -222 127 -290 73 -79
142 -118 355 -203 108 -42 204 -83 214 -91 18 -14 18 -14 -6 -15 -103 -2 -205
-127 -170 -209 36 -88 157 -108 205 -34 21 31 16 36 -22 21 -61 -23 -124 32
-108 94 12 45 58 80 114 86 70 6 140 -29 220 -112 68 -71 117 -163 127 -239
14 -97 -44 -177 -128 -177 -74 0 -121 78 -78 133 24 30 51 35 70 12 18 -22 3
-53 -28 -57 l-27 -4 28 -8 c41 -12 77 15 77 58 0 49 -8 65 -42 82 -69 36 -147
-17 -156 -105 -6 -62 9 -101 53 -140 67 -59 159 -50 220 22 l35 41 0 -90 c0
-101 -17 -180 -56 -257 -30 -58 -36 -54 -49 37 -4 25 -11 44 -15 41 -5 -3 -14
-35 -20 -73 -20 -111 10 -198 181 -511 58 -106 60 -113 33 -94 -68 49 -157 50
-218 2 -97 -76 -59 -229 57 -229 37 0 97 23 97 38 0 4 -20 6 -44 4 -37 -3 -46
0 -65 23 -53 68 9 143 94 115 116 -38 189 -188 202 -411 3 -58 3 -123 -1 -145
l-8 -39 -12 30 c-58 136 -226 165 -281 48 -36 -75 15 -154 98 -152 l42 1 -32
14 c-55 24 -70 82 -33 122 26 27 55 28 98 2 48 -30 76 -97 69 -171 -6 -70 -50
-172 -88 -204 -88 -73 -199 -42 -199 56 0 45 27 72 67 67 21 -2 29 -9 31 -27
4 -28 -14 -43 -43 -35 -18 4 -17 3 4 -15 30 -27 47 -26 76 4 65 64 -10 165
-100 135 -73 -24 -126 -131 -95 -191 37 -71 106 -107 171 -89 l34 9 -40 -37
c-22 -20 -79 -68 -126 -107 -100 -81 -142 -132 -178 -217 -24 -59 -26 -73 -25
-203 1 -112 8 -173 33 -304 17 -91 29 -166 27 -168 -1 -2 -20 12 -40 31 -76
72 -188 72 -244 1 -63 -80 -12 -195 87 -195 35 0 42 15 11 25 -21 7 -50 53
-50 79 0 8 12 28 26 45 21 25 33 31 66 31 57 0 95 -26 125 -88 23 -48 25 -60
20 -140 -8 -141 -61 -262 -140 -326 -34 -27 -47 -31 -99 -31 -55 0 -62 3 -89
33 -37 41 -39 88 -4 126 38 41 105 32 105 -15 0 -9 -7 -22 -15 -29 -12 -10
-20 -9 -41 5 -25 16 -25 16 -15 -4 25 -45 71 -52 106 -16 60 59 12 155 -76
155 -86 0 -153 -68 -153 -154 0 -96 59 -156 155 -156 l54 -1 -60 -55 c-56 -52
-201 -133 -262 -147 -29 -7 -29 -4 5 46 48 70 47 72 -9 41 -109 -62 -167 -178
-226 -449 -43 -198 -43 -198 -55 -155 -21 78 -88 130 -168 130 -83 0 -140 -56
-140 -139 0 -36 6 -49 34 -77 28 -28 42 -34 76 -34 25 0 39 4 35 10 -3 5 -12
10 -20 10 -23 0 -55 42 -55 72 0 36 40 78 73 78 31 0 73 -33 93 -72 21 -40 20
-141 -1 -213 -23 -79 -93 -216 -149 -292 -25 -35 -47 -63 -48 -63 -2 0 -1 25
0 55 7 107 -52 180 -145 180 -45 0 -57 -4 -84 -31 -21 -21 -32 -44 -36 -72 -5
-37 -2 -45 30 -77 36 -36 74 -51 45 -17 -23 27 -28 49 -17 80 20 57 92 67 124
18 44 -67 27 -152 -49 -233 -67 -72 -125 -103 -194 -103 -65 0 -109 35 -119
92 -5 32 -1 41 25 68 46 46 102 37 102 -16 0 -31 -39 -43 -57 -18 -12 17 -13
17 -13 -1 0 -53 70 -72 110 -30 53 56 15 141 -66 152 -89 11 -185 -86 -168
-171 8 -46 47 -94 91 -112 18 -8 33 -16 33 -18 0 -3 -35 -12 -77 -21 -250 -53
-305 -77 -389 -168 -94 -101 -130 -193 -185 -472 -17 -88 -33 -162 -34 -164
-2 -2 -10 12 -18 30 -33 79 -103 124 -181 116 -41 -4 -55 -10 -83 -41 -28 -30
-33 -43 -33 -83 1 -64 42 -113 95 -113 14 0 14 4 -4 26 -54 69 11 162 94 134
44 -15 72 -47 86 -102 11 -40 10 -55 -5 -110 -35 -126 -133 -260 -224 -307
-82 -42 -176 -21 -208 47 -29 62 11 132 77 132 26 0 59 -22 59 -40 0 -40 -50
-56 -69 -22 -10 16 -10 16 -11 -2 -1 -51 66 -73 113 -36 73 58 16 170 -88 170
-44 0 -80 -18 -119 -59 -24 -25 -30 -42 -34 -90 -7 -91 31 -139 132 -168 28
-9 26 -10 -43 -42 -40 -18 -95 -39 -123 -47 -68 -17 -188 -29 -188 -18 0 5 21
28 47 52 46 41 47 42 18 36 -147 -30 -239 -133 -375 -418 l-68 -141 -7 40
c-27 147 -177 212 -268 117 -76 -79 -36 -203 65 -201 28 0 30 1 12 9 -28 11
-54 48 -54 78 0 31 43 72 75 72 63 0 95 -47 95 -138 0 -83 -62 -206 -162 -321
-84 -96 -170 -173 -148 -131 20 37 18 138 -3 178 -61 113 -237 84 -237 -39 0
-38 39 -99 63 -99 8 0 7 4 -1 12 -7 7 -12 29 -12 49 0 29 6 43 26 58 35 27 59
26 89 -4 19 -18 25 -35 25 -70 0 -64 -20 -104 -74 -152 -116 -102 -245 -119
-311 -42 -51 61 -15 148 61 149 52 0 73 -48 32 -74 -13 -8 -22 -6 -37 8 -20
18 -21 18 -21 1 0 -29 30 -55 63 -55 71 0 103 89 53 147 -22 25 -31 28 -84 28
-68 0 -101 -18 -139 -75 -44 -64 -20 -149 55 -193 l37 -22 -140 -7 c-169 -9
-226 -20 -304 -59 -132 -66 -228 -213 -327 -501 -25 -76 -50 -135 -55 -132 -5
3 -9 12 -9 20 0 28 -40 92 -70 114 -68 48 -142 45 -194 -9 -63 -65 -31 -191
49 -191 15 0 15 2 1 22 -48 68 20 154 100 128 82 -27 105 -143 50 -250 -77
-151 -211 -260 -318 -260 -85 0 -138 43 -138 111 0 66 68 117 119 90 25 -14
36 -48 21 -66 -18 -22 -51 -18 -57 5 -3 11 -10 20 -15 20 -12 0 0 -40 20 -62
35 -41 116 -4 128 57 8 42 -30 96 -80 112 -101 34 -218 -59 -202 -160 13 -81
61 -135 131 -149 36 -7 -74 -38 -134 -38 -71 0 -149 35 -185 82 -37 49 -34 56
19 48 25 -4 45 -5 45 -3 0 14 -80 70 -150 104 -73 35 -292 113 -410 146 l-35
9 40 13 c56 19 105 58 121 97 42 100 -14 202 -115 212 -47 4 -53 2 -86 -31
-29 -29 -35 -42 -35 -78 l1 -44 14 32 c23 54 83 70 123 33 33 -31 38 -67 15
-98 -75 -103 -267 -73 -495 77 -135 90 -144 100 -78 93 94 -9 181 45 196 122
12 65 -51 146 -114 146 -36 0 -80 -27 -97 -60 -9 -17 -11 -30 -5 -30 5 0 10 4
10 8 0 5 12 14 26 21 77 35 144 -66 78 -118 -82 -64 -208 -16 -295 113 -43 64
-56 120 -39 171 22 66 96 96 148 59 59 -41 43 -128 -19 -109 -21 7 -25 35 -7
53 9 9 8 12 -8 12 -47 0 -60 -66 -22 -107 26 -27 82 -31 115 -8 29 20 46 81
34 122 -42 145 -211 167 -278 35 -25 -50 -20 -59 -62 124 -36 158 -65 221
-140 294 -100 98 -232 146 -515 189 -77 11 -141 23 -143 25 -3 2 11 12 31 21
47 23 92 75 107 125 16 53 -9 123 -55 151 -67 41 -163 10 -180 -57 -9 -36 -2
-40 30 -15 86 68 181 -52 109 -138 -58 -69 -168 -68 -311 3 -158 79 -245 197
-215 296 13 45 62 90 97 90 82 0 138 -106 74 -140 -45 -24 -79 30 -39 61 19
14 20 19 8 19 -31 0 -62 -35 -62 -70 0 -40 40 -80 81 -80 44 0 89 34 101 77
39 140 -139 259 -250 166 -37 -32 -51 -58 -59 -108 l-6 -40 -36 65 c-48 85
-78 176 -85 259 l-5 66 51 -50 c28 -27 51 -46 51 -42 0 3 -10 32 -21 64 -47
124 -169 212 -449 325 -139 56 -131 50 -81 59 124 23 186 138 129 240 -62 111
-228 76 -228 -48 l0 -28 20 32 c33 55 109 56 139 1 19 -34 7 -73 -32 -102 -23
-17 -43 -21 -105 -21 -68 0 -86 5 -153 37 -87 43 -167 100 -256 182 -63 59
-81 86 -42 65 34 -18 149 -7 181 16 66 49 78 132 28 189 -17 18 -42 37 -56 40
-38 10 -90 -11 -115 -45 -23 -33 -19 -36 16 -13 63 41 147 -39 102 -97 -50
-65 -157 -48 -239 38 -107 112 -121 270 -28 318 41 21 64 19 99 -11 23 -19 31
-34 31 -59 0 -53 -48 -74 -74 -32 -9 14 -7 21 7 32 27 20 1 30 -28 11 -32 -21
-33 -66 -2 -101 34 -40 92 -38 130 5 26 30 29 38 25 87 -7 87 -63 144 -140
145 -59 1 -105 -26 -132 -77 l-21 -40 -7 85 c-21 238 -26 268 -57 334 -45 93
-126 171 -237 229 -76 39 -293 127 -316 127 -3 0 -28 9 -55 21 l-48 20 53 18
c83 28 132 89 132 163 0 104 -131 169 -201 99 -34 -35 -41 -68 -10 -51 34 18
80 12 106 -15 26 -26 31 -57 15 -99 -28 -76 -160 -88 -265 -26 -125 74 -235
220 -235 312 0 49 30 110 65 128 32 17 90 17 112 -2 28 -23 42 -68 31 -100
-13 -36 -55 -49 -74 -23 -16 22 -2 55 23 55 12 0 14 3 7 10 -16 16 -62 -5 -76
-34 -15 -34 6 -82 45 -103 25 -12 37 -13 69 -4 106 32 103 208 -4 262 -83 42
-173 13 -215 -69 -12 -24 -24 -39 -27 -34 -36 59 -50 382 -16 382 4 0 19 -23
34 -50 15 -27 30 -50 33 -50 3 0 3 27 0 61 -11 123 -94 232 -324 426 -62 52
-113 97 -113 98 0 2 16 -1 36 -7 106 -29 214 51 214 160 0 109 -132 169 -203
93 -14 -14 -28 -37 -31 -51 -6 -22 -5 -23 6 -9 18 22 52 39 78 39 28 0 70 -43
70 -73 0 -37 -36 -75 -77 -83 -120 -23 -278 117 -382 337 -22 46 -43 95 -47
109 -7 24 -6 24 29 -7 35 -31 91 -53 132 -53 38 1 103 38 119 69 54 104 -36
209 -138 161 l-41 -18 39 -1 c107 -2 115 -141 8 -141 -101 0 -172 106 -172
256 0 84 13 118 60 158 84 70 200 -11 150 -105 -15 -26 -66 -26 -75 1 -8 26 1
40 28 40 22 1 22 1 3 15 -27 20 -33 19 -61 -10 -66 -65 21 -164 105 -120 108
56 87 233 -32 266 -47 12 -100 -1 -136 -33 l-24 -23 7 25 c4 14 34 83 67 154
73 157 87 224 70 329 -17 98 -68 200 -196 391 -58 88 -106 163 -106 167 0 4
16 1 35 -7 81 -34 191 -7 228 56 31 52 15 130 -35 164 -33 24 -128 20 -128 -5
0 -5 8 -9 18 -9 26 0 62 -28 73 -58 31 -80 -84 -144 -167 -93 -154 94 -177
460 -36 556 56 38 114 35 158 -9 37 -37 42 -62 19 -106 -27 -52 -100 -51 -100
1 0 20 5 24 33 24 38 0 37 16 -2 30 -88 31 -129 -107 -45 -150 87 -46 189 29
189 139 0 116 -120 193 -220 141 -17 -9 -30 -12 -30 -7 0 12 58 101 97 149 34
43 151 133 171 133 7 0 3 -22 -9 -57 -10 -31 -19 -59 -19 -62 0 -2 16 11 36
30 85 81 111 171 124 424 5 93 10 188 10 209 l0 40 30 -47 c51 -81 131 -112
209 -81 76 30 108 101 76 168 -10 20 -30 43 -46 51 -32 17 -109 20 -109 5 0
-5 11 -10 25 -10 62 0 89 -90 39 -129 -33 -26 -50 -26 -92 -1 -107 66 -92 293
33 499 26 42 56 88 69 104 l22 27 -3 -62 c-4 -71 19 -124 70 -162 59 -44 153
-19 186 49 18 36 1 96 -36 124 -34 27 -48 27 -29 -1 25 -35 20 -83 -10 -107
-35 -27 -48 -26 -84 7 -87 77 -17 238 134 308 28 13 66 24 84 24 101 0 165
-95 111 -164 -34 -43 -109 -32 -109 16 0 24 28 34 51 19 30 -18 25 25 -5 44
-74 49 -143 -61 -82 -132 22 -25 31 -28 83 -28 49 0 66 5 95 27 86 66 66 200
-37 243 l-30 13 25 6 c14 2 91 7 171 10 260 10 349 63 503 298 40 62 99 154
132 203 l58 90 7 -62 c10 -107 68 -168 157 -168 48 0 57 4 82 32 39 43 48 93
23 134 -27 48 -43 48 -43 2 0 -73 -51 -108 -115 -78 -59 28 -80 101 -50 173
45 107 246 232 374 232 126 0 210 -92 166 -183 -27 -57 -83 -72 -129 -36 -39
30 -33 74 9 74 25 0 31 -5 35 -30 5 -25 7 -27 13 -12 20 52 -11 97 -66 97 -58
0 -95 -51 -83 -114 15 -80 132 -124 214 -82 74 38 106 150 62 220 -12 20 -29
41 -38 47 -32 20 100 2 174 -23 72 -25 190 -95 179 -107 -4 -3 -32 -8 -63 -12
l-57 -5 50 -24 c101 -47 221 -28 501 80 85 33 158 60 161 60 4 0 -3 -10 -14
-22 -57 -62 -69 -145 -30 -212 51 -89 169 -101 221 -22 21 33 20 105 -2 133
-17 23 -17 22 -17 -23 0 -36 -5 -50 -24 -65 -50 -41 -121 -6 -121 60 0 77 87
152 210 182 71 17 246 17 333 0 78 -15 91 -26 41 -35 -19 -4 -53 -23 -75 -43
-71 -65 -77 -156 -13 -212 40 -36 94 -42 133 -15 35 25 67 114 41 114 -5 0
-10 -6 -10 -14 0 -18 -47 -56 -70 -56 -31 0 -70 39 -70 70 0 37 41 86 86 100
108 36 290 -53 325 -157 24 -73 -24 -153 -92 -153 -55 0 -100 70 -64 100 24
20 50 8 50 -23 -1 -32 2 -33 27 -10 24 21 23 44 -3 77 -27 35 -86 36 -117 4
-62 -68 -20 -174 84 -208 30 -10 43 -9 80 5 55 21 85 62 93 128 l6 52 79 -153
c140 -273 218 -320 606 -371 91 -12 181 -25 200 -29 l35 -8 -48 -23 c-122 -59
-152 -211 -55 -271 59 -36 133 -18 163 40 23 44 18 52 -17 30 -44 -26 -74 -25
-103 5 -43 42 -28 119 29 154 47 28 88 32 153 15 149 -39 299 -185 319 -312
19 -118 -86 -196 -164 -124 -40 38 -50 76 -27 102 20 23 45 26 63 8 19 -19 14
-44 -10 -61 -20 -14 -21 -16 -5 -16 10 -1 29 10 42 24 41 40 29 92 -27 121
-93 48 -186 -65 -134 -164 19 -37 75 -89 109 -101 48 -18 111 -13 148 12 42
28 61 77 53 141 l-5 48 53 -45 c63 -53 189 -138 242 -163 31 -15 34 -19 19
-25 -10 -4 -47 -8 -83 -9 l-65 -1 40 -22 c31 -17 57 -22 115 -22 64 0 85 5
143 32 81 39 156 112 196 192 16 31 46 111 67 179 l38 123 12 -46 c14 -59 40
-94 90 -122 120 -69 259 41 199 157 -21 40 -53 60 -95 59 -19 0 -28 -3 -20 -6
62 -23 80 -96 34 -132 -48 -38 -92 -23 -124 39 -59 115 16 288 201 464 50 48
93 85 96 82 2 -2 -3 -18 -11 -35 -20 -38 -21 -123 -1 -160 8 -16 29 -41 47
-56 28 -24 38 -27 82 -22 91 8 133 88 86 165 -25 41 -43 43 -29 3 8 -23 7 -36
-5 -59 -40 -77 -136 -37 -136 56 0 77 87 166 193 197 65 19 97 19 147 -1 90
-36 107 -152 28 -185 -45 -19 -83 -2 -83 36 0 24 5 31 23 33 13 2 24 -3 28
-12 7 -18 24 -11 24 10 0 24 -38 54 -68 54 -17 0 -38 -10 -52 -25 -71 -76 31
-189 140 -156 53 16 85 47 99 97 14 51 -1 104 -40 143 -39 40 -32 40 135 -1
164 -39 243 -40 343 -5 90 31 159 81 343 246 141 127 169 148 156 115 -37 -97
6 -217 89 -244 75 -25 155 35 155 113 -1 38 -17 77 -34 77 -3 0 -6 -15 -6 -34
0 -63 -77 -98 -126 -58 -49 39 -58 105 -21 164 47 78 148 128 307 152 33 5
107 -3 148 -16z"/>
</g>
</svg>
